<?xml version="1.0" encoding="utf-8"?>
<!-- Generator: Adobe Illustrator 14.0.0, SVG Export Plug-In . SVG Version: 6.00 Build 43363)  -->
<!DOCTYPE svg PUBLIC "-//W3C//DTD SVG 1.1//EN" "http://www.w3.org/Graphics/SVG/1.1/DTD/svg11.dtd">
<svg version="1.1" id="Layer_1" xmlns="http://www.w3.org/2000/svg" xmlns:xlink="http://www.w3.org/1999/xlink" x="0px" y="0px"
	 width="41.424px" height="33.664px" viewBox="123.026 307.127 41.424 33.664"
	 enable-background="new 123.026 307.127 41.424 33.664" xml:space="preserve">
<g>
	<polygon fill="#559B7A" points="123.026,337.755 144.885,340.791 144.885,307.127 123.026,310.163 	"/>
	<polygon fill="#FFFFFF" points="164.45,334.602 144.884,340.791 144.884,307.127 164.45,313.316 	"/>
	<g>
		<g>
			<path fill="#FFFFFF" d="M137.123,310.284c1.283-0.166,2.35-0.047,3.225,0.317c0.889,0.368,1.57,0.989,2.084,1.812
				c0.522,0.832,0.869,1.866,1.084,3.05c0.216,1.189,0.297,2.525,0.295,3.957l-0.008,2.503c-0.003,1.09-0.087,2.22-0.277,3.3
				c-0.189,1.074-0.484,2.096-0.908,2.969c-0.419,0.867-0.967,1.588-1.658,2.072c-0.685,0.479-1.508,0.723-2.487,0.653l-9.873-0.692
				l-0.021,6.33l-4.294-0.591l0.08-24.03L137.123,310.284z"/>
		</g>
		<path fill="#559B7A" d="M159.654,312.924c0.748,0.219,1.396,0.499,1.941,0.888c0.533,0.377,0.975,0.859,1.326,1.49
			c0.346,0.621,0.605,1.392,0.776,2.359c0.172,0.96,0.259,2.123,0.255,3.542l-0.002,0.884l-7.59-0.476l-0.019,6.338l0.689-0.062
			l0.013-4.978l6.9,0.22l-0.01,3.859c-0.004,1.421-0.099,2.584-0.273,3.544c-0.178,0.968-0.443,1.735-0.791,2.354
			c-0.355,0.632-0.803,1.109-1.335,1.482c-0.548,0.385-1.198,0.659-1.946,0.873l-6.324,1.802c-1.06,0.301-2.055,0.471-2.959,0.427
			c-0.939-0.045-1.772-0.319-2.473-0.905c-0.718-0.602-1.285-1.523-1.675-2.846c-0.396-1.342-0.601-3.072-0.593-5.253l0.026-8.885
			c0.009-2.18,0.222-3.906,0.626-5.243c0.396-1.316,0.971-2.234,1.69-2.83c0.702-0.579,1.538-0.847,2.479-0.886
			c0.902-0.035,1.896,0.141,2.95,0.449L159.654,312.924z"/>
	</g>
</g>
</svg>
