<?xml version="1.0" standalone="no"?>
<!DOCTYPE svg PUBLIC "-//W3C//DTD SVG 1.1//EN" "http://www.w3.org/Graphics/SVG/1.1/DTD/svg11.dtd" >
<svg xmlns="http://www.w3.org/2000/svg">
<metadata>
This is a custom SVG webfont generated by Font Squirrel.
</metadata>
<defs>
<font id="webfontRWpJpraV" horiz-adv-x="525" >
<font-face units-per-em="1000" ascent="800" descent="-200" />
<missing-glyph horiz-adv-x="500" />
<glyph unicode=" " />
<glyph unicode="!" horiz-adv-x="225" d="M0 150h150v225h-150v-225zM0 0h150v75h-150v-75z" />
<glyph unicode="&#x22;" horiz-adv-x="450" d="M0 225h150v150h-150v-150zM225 225h150v150h-150v-150z" />
<glyph unicode="#" horiz-adv-x="600" d="M300 0h150v75h75v75h-75v75h75v75h-75v75h-150v-75h-75v75h-150v-75h-75v-75h75v-75h-75v-75h75v-75h150v75h75v-75zM225 225h75v-75h-75v75z" />
<glyph unicode="$" d="M150 -75h150v75h150v225h-300v75h300v75h-150v75h-150v-75h-150v-225h300v-75h-300v-75h150v-75z" />
<glyph unicode="%" d="M0 450v-225h150v-75h-75v-75h-75v-75h150v75h75v-150h225v225h-150v75h75v75h75v75h-150v-75h-75v150h-225zM375 0h-75v75h75v-75zM150 300h-75v75h75v-75z" />
<glyph unicode="&#x26;" d="M0 0h150v-75h150v75h150v75h-300v75h150v75h-150v75h300v75h-150v75h-150v-75h-150v-150h75v-75h-75v-150z" />
<glyph unicode="'" horiz-adv-x="225" d="M0 225h150v150h-150v-150z" />
<glyph unicode="(" horiz-adv-x="375" d="M75 0h225v75h-150v225h150v75h-225v-75h-75v-225h75v-75z" />
<glyph unicode=")" horiz-adv-x="375" d="M0 0h225v75h75v225h-75v75h-225v-75h150v-225h-150v-75z" />
<glyph unicode="*" d="M0 75h150v75h150v-75h150v75h-75v75h75v150h-75v-75h-75v75h-150v-75h-75v75h-75v-150h75v-75h-75v-75z" />
<glyph unicode="+" d="M300 150h150v75h-150v75h-150v-75h-150v-75h150v-75h150v75z" />
<glyph unicode="," horiz-adv-x="225" d="M0 -75h150v225h-150v-225z" />
<glyph unicode="-" horiz-adv-x="375" d="M0 150h300v75h-300v-75z" />
<glyph unicode="." horiz-adv-x="225" d="M0 0h150v150h-150v-150z" />
<glyph unicode="/" d="M300 300h-75v-75h-75v-75h-75v-75h-75v-75h150v75h75v75h75v75h75v75h75v75h-150v-75z" />
<glyph unicode="0" d="M0 0h450v375h-450v-375zM150 300h150v-225h-150v225z" />
<glyph unicode="1" horiz-adv-x="225" d="M0 0h150v375h-150v-375z" />
<glyph unicode="2" d="M0 300h300v-75h-300v-225h450v75h-300v75h300v225h-450v-75z" />
<glyph unicode="3" d="M0 300h300v-75h-150v-75h150v-75h-300v-75h450v150h-75v75h75v150h-450v-75z" />
<glyph unicode="4" d="M300 0h150v375h-150v-150h-150v150h-150v-225h300v-150z" />
<glyph unicode="5" d="M0 150h300v-75h-300v-75h450v225h-300v75h300v75h-450v-225z" />
<glyph unicode="6" d="M0 0h450v225h-300v75h300v75h-450v-375zM150 150h150v-75h-150v75z" />
<glyph unicode="7" d="M0 300h300v-300h150v375h-450v-75z" />
<glyph unicode="8" d="M0 375v-375h450v375h-450zM300 150v-75h-150v75h150zM300 225h-150v75h150v-75z" />
<glyph unicode="9" d="M0 375v-225h300v-150h150v375h-450zM300 300v-75h-150v75h150z" />
<glyph unicode=":" horiz-adv-x="225" d="M0 0h150v150h-150v-150zM0 225h150v150h-150v-150z" />
<glyph unicode=";" horiz-adv-x="225" d="M0 -75h150v225h-150v-225zM0 225h150v150h-150v-150z" />
<glyph unicode="&#x3c;" horiz-adv-x="375" d="M150 300h-75v-75h-75v-75h75v-75h75v-75h150v75h-75v75h-75v75h75v75h75v75h-150v-75z" />
<glyph unicode="=" horiz-adv-x="375" d="M0 75h300v75h-300v-75zM0 225h300v75h-300v-75z" />
<glyph unicode="&#x3e;" horiz-adv-x="375" d="M0 300h75v-75h75v-75h-75v-75h-75v-75h150v75h75v75h75v75h-75v75h-75v75h-150v-75z" />
<glyph unicode="?" d="M0 300h300v-75h-150v-75h300v225h-450v-75zM150 0h150v75h-150v-75z" />
<glyph unicode="@" horiz-adv-x="600" d="M150 375h225v-75h-150v-225h300v375h-525v-525h525v75h-375v375zM300 225h75v-75h-75v75z" />
<glyph unicode="A" d="M150 150h150v-150h150v375h-450v-375h150v150zM150 300h150v-75h-150v75z" />
<glyph unicode="B" d="M0 0h450v150h-75v75h75v150h-450v-375zM150 300h150v-75h-150v75zM150 150h150v-75h-150v75z" />
<glyph unicode="C" d="M150 300h300v75h-450v-375h450v75h-300v225z" />
<glyph unicode="D" d="M0 0h375v75h75v225h-75v75h-375v-375zM150 300h150v-225h-150v225z" />
<glyph unicode="E" d="M0 0h450v75h-300v75h150v75h-150v75h300v75h-450v-375z" />
<glyph unicode="F" d="M150 150h150v75h-150v75h300v75h-450v-375h150v150z" />
<glyph unicode="G" d="M225 150h75v-75h-150v225h300v75h-450v-375h450v225h-225v-75z" />
<glyph unicode="H" d="M150 150h150v-150h150v375h-150v-150h-150v150h-150v-375h150v150z" />
<glyph unicode="I" d="M0 300h150v-225h-150v-75h450v75h-150v225h150v75h-450v-75z" />
<glyph unicode="J" d="M0 0h450v375h-150v-300h-150v75h-150v-150z" />
<glyph unicode="K" d="M150 150h75v-75h75v-75h150v75h-75v75h-75v75h75v75h75v75h-150v-75h-75v-75h-75v150h-150v-375h150v150z" />
<glyph unicode="L" d="M0 0h450v75h-300v300h-150v-375z" />
<glyph unicode="M" horiz-adv-x="600" d="M150 150h75v-75h75v75h75v-150h150v375h-150v-75h-75v-75h-75v75h-75v75h-150v-375h150v150z" />
<glyph unicode="N" d="M150 150h75v-75h75v-75h150v375h-150v-150h-75v75h-75v75h-150v-375h150v150z" />
<glyph unicode="O" d="M0 0h450v375h-450v-375zM150 300h150v-225h-150v225z" />
<glyph unicode="P" d="M150 150h300v225h-450v-375h150v150zM150 300h150v-75h-150v75z" />
<glyph unicode="Q" d="M0 0h150v-75h150v75h150v375h-450v-375zM150 300h150v-225h-150v225z" />
<glyph unicode="R" d="M150 150h150v-150h150v150h-75v75h75v150h-450v-375h150v150zM150 300h150v-75h-150v75z" />
<glyph unicode="S" d="M0 150h300v-75h-300v-75h450v225h-300v75h300v75h-450v-225z" />
<glyph unicode="T" d="M0 300h150v-300h150v300h150v75h-450v-75z" />
<glyph unicode="U" d="M0 0h450v375h-150v-300h-150v300h-150v-375z" />
<glyph unicode="V" d="M0 150h75v-75h75v-75h150v75h75v75h75v225h-150v-225h-150v225h-150v-225z" />
<glyph unicode="W" horiz-adv-x="600" d="M150 75h75v75h75v-75h75v-75h150v375h-150v-150h-75v75h-75v-75h-75v150h-150v-375h150v75z" />
<glyph unicode="X" d="M0 225h75v-75h-75v-150h150v150h150v-150h150v150h-75v75h75v150h-150v-150h-150v150h-150v-150z" />
<glyph unicode="Y" d="M0 225h75v-75h75v-150h150v150h75v75h75v150h-150v-150h-150v150h-150v-150z" />
<glyph unicode="Z" d="M0 300h225v-75h-75v-75h-75v-75h-75v-75h450v75h-225v75h75v75h75v75h75v75h-450v-75z" />
<glyph unicode="[" horiz-adv-x="375" d="M150 300h150v75h-300v-375h300v75h-150v225z" />
<glyph unicode="\" d="M0 300h75v-75h75v-75h75v-75h75v-75h150v75h-75v75h-75v75h-75v75h-75v75h-150v-75z" />
<glyph unicode="]" horiz-adv-x="375" d="M0 0h300v375h-300v-75h150v-225h-150v-75z" />
<glyph unicode="^" horiz-adv-x="300" d="M75 225h75v-75h75v150h-75v75h-75v-75h-75v-150h75v75z" />
<glyph unicode="_" horiz-adv-x="375" d="M0 -75h300v75h-300v-75z" />
<glyph unicode="`" horiz-adv-x="225" d="M0 225h150v150h-150v-150z" />
<glyph unicode="a" d="M0 300h300v-75h-300v-225h450v375h-450v-75zM300 75h-150v75h150v-75z" />
<glyph unicode="b" d="M375 75h75v75h-75v75h75v75h-75v75h-375v-375h375v75zM150 150h150v-75h-150v75zM150 300h150v-75h-150v75z" />
<glyph unicode="c" d="M150 300h300v75h-450v-375h450v75h-300v225z" />
<glyph unicode="d" d="M0 0h375v75h75v225h-75v75h-375v-375zM150 300h150v-225h-150v225z" />
<glyph unicode="e" d="M150 150h300v225h-450v-375h450v75h-300v75zM150 300h150v-75h-150v75z" />
<glyph unicode="f" d="M150 150h150v75h-150v75h300v75h-450v-375h150v150z" />
<glyph unicode="g" d="M0 0h450v375h-450v-225h300v-75h-300v-75zM150 300h150v-75h-150v75z" />
<glyph unicode="h" d="M150 150h150v-150h150v375h-150v-150h-150v150h-150v-375h150v150z" />
<glyph unicode="i" horiz-adv-x="225" d="M0 0h150v375h-150v-375z" />
<glyph unicode="j" d="M0 0h450v375h-150v-300h-150v75h-150v-150z" />
<glyph unicode="k" d="M150 150h75v-75h75v-75h150v75h-75v75h-75v75h75v75h75v75h-150v-75h-75v-75h-75v150h-150v-375h150v150z" />
<glyph unicode="l" d="M0 0h450v75h-300v300h-150v-375z" />
<glyph unicode="m" horiz-adv-x="675" d="M150 300h75v-300h150v300h75v-300h150v375h-600v-375h150v300z" />
<glyph unicode="n" d="M150 300h150v-300h150v375h-450v-375h150v300z" />
<glyph unicode="o" d="M0 0h450v375h-450v-375zM150 300h150v-225h-150v225z" />
<glyph unicode="p" d="M150 150h300v225h-450v-375h150v150zM150 300h150v-75h-150v75z" />
<glyph unicode="q" d="M0 0h150v-75h150v75h150v375h-450v-375zM150 300h150v-225h-150v225z" />
<glyph unicode="r" d="M150 150h150v-150h150v150h-75v75h75v75h-75v75h-375v-375h150v150zM150 300h150v-75h-150v75z" />
<glyph unicode="s" d="M0 150h300v-75h-300v-75h450v225h-300v75h300v75h-450v-225z" />
<glyph unicode="t" d="M0 300h150v-300h150v300h150v75h-450v-75z" />
<glyph unicode="u" d="M0 0h450v375h-150v-300h-150v300h-150v-375z" />
<glyph unicode="v" d="M0 150h75v-75h75v-75h150v75h75v75h75v225h-150v-225h-150v225h-150v-225z" />
<glyph unicode="w" horiz-adv-x="675" d="M0 0h600v375h-150v-300h-75v300h-150v-300h-75v300h-150v-375z" />
<glyph unicode="x" d="M0 0h150v75h150v-75h150v150h-150v75h150v150h-150v-75h-150v75h-150v-150h150v-75h-150v-150z" />
<glyph unicode="y" d="M0 0h450v375h-150v-150h-150v150h-150v-225h300v-75h-300v-75z" />
<glyph unicode="z" d="M0 300h225v-75h-75v-75h-75v-75h-75v-75h450v75h-225v75h75v75h75v75h75v75h-450v-75z" />
<glyph unicode="{" horiz-adv-x="450" d="M75 0h300v75h-150v225h150v75h-300v-150h-75v-75h75v-150z" />
<glyph unicode="|" horiz-adv-x="225" d="M0 -150h150v525h-150v-525z" />
<glyph unicode="}" horiz-adv-x="450" d="M0 300h150v-225h-150v-75h300v150h75v75h-75v150h-300v-75z" />
<glyph unicode="~" d="M75 150h75v-75h75v-75h150v75h75v150h-75v-75h-75v75h-75v75h-150v-75h-75v-150h75v75z" />
<glyph horiz-adv-x="450" d="M0 0h375v375h-375v-375zM225 225h75v-75h-75v75zM225 225h-75v75h75v-75zM150 150h75v-75h-75v75zM150 150h-75v75h75v-75z" />
<glyph horiz-adv-x="450" d="M0 0h375v375h-375v-375zM75 150h75v-75h-75v75zM75 300h75v-75h-75v75zM225 75v75h75v-75h-75zM300 300v-75h-75v75h75z" />
<glyph horiz-adv-x="450" d="M0 0h375v375h-375v-375zM75 300h75v-225h-75v225zM300 300v-225h-75v225h75z" />
<glyph horiz-adv-x="450" d="M0 0h375v375h-375v-375zM75 300h150v-225h-150v225z" />
<glyph horiz-adv-x="450" d="M0 0h375v375h-375v-375zM150 75h-75v225h75v-75h75v75h75v-225h-75v75h-75v-75z" />
<glyph horiz-adv-x="450" d="M0 0h375v375h-375v-375zM225 150h75v-75h-225v75h75v75h-75v75h225v-75h-75v-75z" />
<glyph horiz-adv-x="450" d="M0 0h375v375h-375v-375zM75 150h150v150h75v-225h-225v75zM75 300h75v-75h-75v75z" />
<glyph horiz-adv-x="450" d="M0 0h375v375h-375v-375zM75 300h75v-150h150v-75h-225v225zM300 300v-75h-75v75h75z" />
<glyph unicode="&#xa0;" />
<glyph unicode="&#xa1;" horiz-adv-x="225" d="M0 0h150v225h-150v-225zM0 300h150v75h-150v-75z" />
<glyph unicode="&#xa2;" d="M150 -75h150v75h150v75h-300v225h300v75h-150v75h-150v-75h-150v-375h150v-75z" />
<glyph unicode="&#xa3;" d="M375 225h75v75h-75v75h-225v-75h-75v-75h-75v-75h75v-75h-75v-75h450v75h-225v75h75v75h-75v75h150v-75z" />
<glyph unicode="&#xa4;" horiz-adv-x="450" d="M75 75h225v-75h75v75h-75v225h-225v75h-75v-75h75v-225zM300 300h75v75h-75v-75zM0 0h75v75h-75v-75zM150 225h75v-75h-75v75z" />
<glyph unicode="&#xa5;" d="M75 0h75v-75h150v75h75v75h-75v75h75v75h75v150h-150v-150h-150v150h-150v-150h75v-75h75v-75h-75v-75z" />
<glyph unicode="&#xa6;" horiz-adv-x="225" d="M0 225h150v225h-150v-225zM0 -75h150v225h-150v-225z" />
<glyph unicode="&#xa7;" d="M0 75h300v-75h-300v-75h450v375h-300v75h300v75h-450v-375zM300 225v-75h-150v75h150z" />
<glyph unicode="&#xa8;" horiz-adv-x="450" d="M0 225h150v150h-150v-150zM225 225h150v150h-150v-150z" />
<glyph unicode="&#xa9;" horiz-adv-x="600" d="M75 -75h375v75h-375v375h-75v-375h75v-75zM75 375h375v-375h75v375h-75v75h-375v-75zM150 300v-225h225v75h-150v75h150v75h-225z" />
<glyph unicode="&#xaa;" horiz-adv-x="300" d="M0 300h150v-75h-150v-225h225v375h-225v-75zM75 150h75v-75h-75v75z" />
<glyph unicode="&#xab;" d="M225 150h75v-75h150v75h-75v75h75v75h-150v-75h-75v75h-150v-75h-75v-75h75v-75h150v75zM225 150h-75v75h75v-75z" />
<glyph unicode="&#xac;" d="M0 150h300v-150h150v225h-450v-75z" />
<glyph unicode="&#xad;" horiz-adv-x="225" d="M0 150h150v75h-150v-75z" />
<glyph unicode="&#xae;" horiz-adv-x="600" d="M75 -75h375v75h-375v375h-75v-375h75v-75zM75 375h375v-375h75v375h-75v75h-375v-75zM300 75h75v75h-75v75h75v75h-225v-225h75v75h75v-75z" />
<glyph unicode="&#xaf;" horiz-adv-x="375" d="M0 450h300v75h-300v-75z" />
<glyph unicode="&#xb0;" horiz-adv-x="300" d="M0 525v-225h225v225h-225zM150 375h-75v75h75v-75z" />
<glyph unicode="&#xb1;" d="M0 225h150v-75h150v75h150v75h-150v75h-150v-75h-150v-75zM0 0h450v75h-450v-75z" />
<glyph unicode="&#xb2;" horiz-adv-x="300" d="M0 225h225v75h-75v75h-75v-75h-75v-75zM150 375h75v75h-75v75h-150v-75h150v-75z" />
<glyph unicode="&#xb3;" horiz-adv-x="300" d="M0 450h75v-75h75v-75h75v150h-75v75h-150v-75zM0 225h150v75h-150v-75z" />
<glyph unicode="&#xb4;" horiz-adv-x="300" d="M0 375h150v75h75v75h-150v-75h-75v-75z" />
<glyph unicode="&#xb5;" horiz-adv-x="600" d="M0 -150h150v75h75v75h300v375h-150v-300h-150v300h-150v-450h-75v-75z" />
<glyph unicode="&#xb6;" horiz-adv-x="450" d="M300 375h75v75h-300v-75h-75v-150h75v-75h75v-150h150v375z" />
<glyph unicode="&#xb7;" horiz-adv-x="300" d="M0 75h225v225h-225v-225z" />
<glyph unicode="&#x2219;" horiz-adv-x="300" d="M0 75h225v225h-225v-225z" />
<glyph unicode="&#xb8;" horiz-adv-x="225" d="M0 -150h150v150h-75v-75h-75v-75z" />
<glyph unicode="&#xb9;" horiz-adv-x="150" d="M0 225h75v300h-75v-300z" />
<glyph unicode="&#xba;" horiz-adv-x="300" d="M0 225h225v300h-225v-300zM75 450h75v-150h-75v150z" />
<glyph unicode="&#xbb;" d="M0 225h75v-75h-75v-75h150v75h75v-75h150v75h75v75h-75v75h-150v-75h75v-75h-75v75h-75v75h-150v-75z" />
<glyph unicode="&#xbc;" d="M0 150h75v-75h-75v-75h150v75h75v-75h150v-75h75v300h-75v75h75v75h-150v-75h-75v-75h-75v-75h-75v300h-75v-300zM375 225v-150h-75v150h75z" />
<glyph unicode="&#xbd;" d="M0 150h75v-75h-75v-75h150v75h75v75h150v-75h75v75h-75v150h75v75h-150v-75h-75v-75h-75v-75h-75v300h-75v-300zM300 0h-75v-75h225v75h-75v75h-75v-75z" />
<glyph unicode="&#xbe;" d="M225 0h150v-75h75v300h-75v75h75v75h-150v-75h-75v75h-75v75h-150v-75h75v-75h75v-75h-150v-75h75v-75h-75v-75h150v75h75v-75zM300 225h75v-150h-75v150z" />
<glyph unicode="&#xbf;" d="M0 225v-225h450v75h-300v75h150v75h-300zM150 300h150v75h-150v-75z" />
<glyph unicode="&#xc0;" d="M150 150h150v-150h150v375h-150v75h-75v75h-150v-75h75v-75h-150v-375h150v150zM150 300h150v-75h-150v75z" />
<glyph unicode="&#xc1;" d="M150 150h150v-150h150v375h-150v75h75v75h-150v-75h-75v-75h-150v-375h150v150zM150 300h150v-75h-150v75z" />
<glyph unicode="&#xc2;" d="M75 375h-75v-375h150v150h150v-150h150v375h-75v75h-75v75h-150v-75h150v-75h-150v75h-75v-75zM150 300h150v-75h-150v75z" />
<glyph unicode="&#xc3;" d="M150 150h150v-150h150v375h-75v75h-150v75h-150v-75h150v-75h-150v75h-75v-450h150v150zM150 300h150v-75h-150v75zM375 450h75v75h-75v-75z" />
<glyph unicode="&#xc4;" d="M150 150h150v-150h150v375h-450v-375h150v150zM150 300h150v-75h-150v75zM0 450h150v75h-150v-75zM300 450h150v75h-150v-75z" />
<glyph unicode="&#xc5;" d="M150 150h150v-150h150v375h-75v150h-300v-150h-75v-375h150v150zM150 300h150v-75h-150v75zM150 450h150v-75h-150v75z" />
<glyph unicode="&#xc6;" horiz-adv-x="825" d="M150 150h150v-150h450v75h-300v75h150v75h-150v75h300v75h-750v-375h150v150zM150 300h150v-75h-150v75z" />
<glyph unicode="&#xc7;" d="M150 -150h150v150h150v75h-300v225h300v75h-450v-375h225v-75h-75v-75z" />
<glyph unicode="&#xc8;" d="M0 0h450v75h-300v75h150v75h-150v75h300v75h-150v75h-75v75h-150v-75h75v-75h-150v-375z" />
<glyph unicode="&#xc9;" d="M0 0h450v75h-300v75h150v75h-150v75h300v75h-150v75h75v75h-150v-75h-75v-75h-150v-375z" />
<glyph unicode="&#xca;" d="M0 0h450v75h-300v75h150v75h-150v75h300v75h-75v75h-75v75h-150v-75h150v-75h-150v75h-75v-75h-75v-375z" />
<glyph unicode="&#xcb;" d="M0 0h450v75h-300v75h150v75h-150v75h300v75h-450v-375zM300 450h150v75h-150v-75zM0 450h150v75h-150v-75z" />
<glyph unicode="&#xcc;" d="M0 300h150v-225h-150v-75h450v75h-150v225h150v75h-150v75h-75v75h-150v-75h75v-75h-150v-75z" />
<glyph unicode="&#xcd;" d="M0 300h150v-225h-150v-75h450v75h-150v225h150v75h-150v75h75v75h-150v-75h-75v-75h-150v-75z" />
<glyph unicode="&#xce;" d="M0 300h150v-225h-150v-75h450v75h-150v225h150v75h-75v75h-75v75h-150v-75h150v-75h-150v75h-75v-75h-75v-75z" />
<glyph unicode="&#xcf;" d="M0 300h150v-225h-150v-75h450v75h-150v225h150v75h-450v-75zM0 450h150v75h-150v-75zM300 450h150v75h-150v-75z" />
<glyph unicode="&#xd0;" horiz-adv-x="600" d="M0 150h75v-150h375v75h75v225h-75v75h-375v-150h-75v-75zM225 150h75v75h-75v75h150v-225h-150v75z" />
<glyph unicode="&#xd1;" d="M225 375h75v-150h-75v75h-75v75h-75v75h-75v-450h150v150h75v-75h75v-75h150v375h-75v75h-150v75h-150v-75h150v-75zM375 450h75v75h-75v-75z" />
<glyph unicode="&#xd2;" d="M0 0h450v375h-150v75h-75v75h-150v-75h75v-75h-150v-375zM150 300h150v-225h-150v225z" />
<glyph unicode="&#xd3;" d="M0 0h450v375h-150v75h75v75h-150v-75h-75v-75h-150v-375zM150 300h150v-225h-150v225z" />
<glyph unicode="&#xd4;" d="M0 0h450v375h-75v75h-75v75h-150v-75h150v-75h-150v75h-75v-75h-75v-375zM150 300h150v-225h-150v225z" />
<glyph unicode="&#xd5;" d="M0 450v-450h450v375h-75v75h-150v75h-150v-75h150v-75h-150v75h-75zM150 300h150v-225h-150v225zM375 450h75v75h-75v-75z" />
<glyph unicode="&#xd6;" d="M0 0h450v375h-450v-375zM150 300h150v-225h-150v225zM0 450h150v75h-150v-75zM300 450h150v75h-150v-75z" />
<glyph unicode="&#xd7;" horiz-adv-x="450" d="M75 225h75v-75h75v-75h75v-75h75v75h-75v75h-75v75h-75v75h-75v75h-75v-75h75v-75zM300 300h75v75h-75v-75zM225 225h75v75h-75v-75zM75 75h75v75h-75v-75zM0 0h75v75h-75v-75z" />
<glyph unicode="&#xd8;" d="M0 -75h75v75h375v450h-75v-75h-375v-450zM225 150h75v-75h-75v75zM150 300h75v-75h-75v75z" />
<glyph unicode="&#xd9;" d="M0 0h450v375h-150v75h-75v75h-150v-75h75v-75h150v-300h-150v300h-150v-375z" />
<glyph unicode="&#xda;" d="M150 375h-150v-375h450v375h-150v75h75v75h-150v-75h-75v-75zM150 375h150v-300h-150v300z" />
<glyph unicode="&#xdb;" d="M0 0h450v375h-75v75h-75v75h-150v-75h150v-375h-150v375h-75v-75h-75v-375z" />
<glyph unicode="&#xdc;" d="M0 0h450v375h-150v-300h-150v300h-150v-375zM0 450h150v75h-150v-75zM300 450h150v75h-150v-75z" />
<glyph unicode="&#xdd;" d="M150 375h-150v-150h75v-75h75v-150h150v150h75v75h75v150h-150v75h75v75h-150v-75h-75v-75zM150 375h150v-150h-150v150z" />
<glyph unicode="&#xde;" horiz-adv-x="450" d="M150 75h150v75h75v75h-75v75h-150v75h-150v-375h150v75zM225 150h-75v75h75v-75z" />
<glyph unicode="&#xdf;" d="M150 300h75v-150h75v-75h-75v-75h225v225h-75v150h-375v-375h150v300z" />
<glyph unicode="&#xe0;" d="M0 300h300v-75h-300v-225h450v375h-150v75h-75v75h-150v-75h75v-75h-150v-75zM300 75h-150v75h150v-75z" />
<glyph unicode="&#xe1;" d="M0 300h300v-75h-300v-225h450v375h-150v75h75v75h-150v-75h-75v-75h-150v-75zM300 75h-150v75h150v-75z" />
<glyph unicode="&#xe2;" d="M0 300h300v-75h-300v-225h450v375h-75v75h-75v75h-150v-75h150v-75h-150v75h-75v-75h-75v-75zM300 75h-150v75h150v-75z" />
<glyph unicode="&#xe3;" d="M0 450v-150h300v-75h-300v-225h450v375h-75v75h-150v75h-150v-75h150v-75h-150v75h-75zM300 75h-150v75h150v-75zM375 450h75v75h-75v-75z" />
<glyph unicode="&#xe4;" d="M0 300h300v-75h-300v-225h450v375h-450v-75zM300 75h-150v75h150v-75zM0 450h150v75h-150v-75zM300 450h150v75h-150v-75z" />
<glyph unicode="&#xe5;" d="M0 300h300v-75h-300v-225h450v375h-75v150h-300v-150h-75v-75zM150 450h150v-75h-150v75zM300 75h-150v75h150v-75z" />
<glyph unicode="&#xe6;" horiz-adv-x="825" d="M450 150h300v225h-750v-75h300v-75h-300v-225h750v75h-300v75zM150 150h150v-75h-150v75zM450 300h150v-75h-150v75z" />
<glyph unicode="&#xe7;" d="M150 -150h150v150h150v75h-300v225h300v75h-450v-375h225v-75h-75v-75z" />
<glyph unicode="&#xe8;" d="M150 150h300v225h-150v75h-75v75h-150v-75h75v-75h-150v-375h450v75h-300v75zM150 300h150v-75h-150v75z" />
<glyph unicode="&#xe9;" d="M150 150h300v225h-150v75h75v75h-150v-75h-75v-75h-150v-375h450v75h-300v75zM150 300h150v-75h-150v75z" />
<glyph unicode="&#xea;" d="M150 150h300v225h-75v75h-75v75h-150v-75h150v-75h-150v75h-75v-75h-75v-375h450v75h-300v75zM150 300h150v-75h-150v75z" />
<glyph unicode="&#xeb;" d="M150 150h300v225h-450v-375h450v75h-300v75zM150 300h150v-75h-150v75zM0 450h150v75h-150v-75zM300 450h150v75h-150v-75z" />
<glyph unicode="&#xec;" horiz-adv-x="300" d="M75 0h150v375h75v75h-75v75h-150v-75h75v-75h-75v-375z" />
<glyph unicode="&#xed;" horiz-adv-x="300" d="M0 375h75v-375h150v375h-75v75h75v75h-150v-75h-75v-75z" />
<glyph unicode="&#xee;" horiz-adv-x="300" d="M75 0h150v375h-150v75h-75v-75h75v-375zM225 375h75v75h-75v75h-150v-75h150v-75z" />
<glyph unicode="&#xef;" horiz-adv-x="300" d="M75 0h150v375h-150v150h-75v-150h75v-375zM225 375h75v150h-75v-150z" />
<glyph unicode="&#xf0;" horiz-adv-x="600" d="M0 150h75v-150h375v75h75v225h-75v75h-375v-150h-75v-75zM225 150h75v75h-75v75h150v-225h-150v75z" />
<glyph unicode="&#xf1;" d="M150 300h150v-300h150v375h-75v75h-150v75h-150v-75h150v-75h-150v75h-75v-450h150v300zM375 450h75v75h-75v-75z" />
<glyph unicode="&#xf2;" d="M0 0h450v375h-150v75h-75v75h-150v-75h75v-75h-150v-375zM150 300h150v-225h-150v225z" />
<glyph unicode="&#xf3;" d="M0 0h450v375h-150v75h75v75h-150v-75h-75v-75h-150v-375zM150 300h150v-225h-150v225z" />
<glyph unicode="&#xf4;" d="M0 0h450v375h-75v75h-75v75h-150v-75h150v-75h-150v75h-75v-75h-75v-375zM150 300h150v-225h-150v225z" />
<glyph unicode="&#xf5;" d="M0 450v-450h450v375h-75v75h-150v75h-150v-75h150v-75h-150v75h-75zM150 300h150v-225h-150v225zM375 450h75v75h-75v-75z" />
<glyph unicode="&#xf6;" d="M0 0h450v375h-450v-375zM150 300h150v-225h-150v225zM0 450h150v75h-150v-75zM300 450h150v75h-150v-75z" />
<glyph unicode="&#xf7;" horiz-adv-x="450" d="M0 150h375v75h-375v-75zM150 300h75v75h-75v-75zM150 0h75v75h-75v-75z" />
<glyph unicode="&#xf8;" d="M0 -75h75v75h375v450h-75v-75h-375v-450zM225 150h75v-75h-75v75zM150 300h75v-75h-75v75z" />
<glyph unicode="&#xf9;" d="M0 0h450v375h-150v75h-75v75h-150v-75h75v-75h150v-300h-150v300h-150v-375z" />
<glyph unicode="&#xfa;" d="M150 375h-150v-375h450v375h-150v75h75v75h-150v-75h-75v-75zM150 375h150v-300h-150v300z" />
<glyph unicode="&#xfb;" d="M0 0h450v375h-75v75h-75v75h-150v-75h150v-375h-150v375h-75v-75h-75v-375z" />
<glyph unicode="&#xfc;" d="M0 0h450v375h-150v-300h-150v300h-150v-375zM0 450h150v75h-150v-75zM300 450h150v75h-150v-75z" />
<glyph unicode="&#xfd;" d="M150 375h-150v-225h300v-75h-300v-75h450v375h-150v75h75v75h-150v-75h-75v-75zM150 375h150v-150h-150v150z" />
<glyph unicode="&#xfe;" horiz-adv-x="450" d="M0 450v-525h150v150h150v75h75v75h-75v75h-150v150h-150zM225 150h-75v75h75v-75z" />
<glyph unicode="&#xff;" d="M0 0h450v375h-150v-150h-150v150h-150v-225h300v-75h-300v-75zM0 450h150v75h-150v-75zM300 450h150v75h-150v-75z" />
<glyph unicode="&#x152;" horiz-adv-x="450" d="M0 0h375v375h-375v-375zM300 300v-225h-150v225h150z" />
<glyph unicode="&#x153;" horiz-adv-x="450" d="M0 0h375v375h-375v-375zM75 300h225v-225h-75v150h-150v75zM75 150h75v-75h-75v75z" />
<glyph unicode="&#x178;" horiz-adv-x="450" d="M75 300h75v75h-150v-150h75v75zM225 300h75v-75h75v150h-150v-75zM225 0h150v150h-75v-75h-75v-75zM0 0h150v75h-75v75h-75v-150zM150 150h75v75h-75v-75z" />
<glyph unicode="&#x2c6;" horiz-adv-x="450" d="M0 0h375v375h-375v-375zM75 300h225v-225h-225v225z" />
<glyph unicode="&#x2dc;" horiz-adv-x="450" d="M0 0h375v375h-375v-375zM75 225h150v-150h-150v150z" />
<glyph unicode="&#x2000;" horiz-adv-x="365" />
<glyph unicode="&#x2001;" horiz-adv-x="731" />
<glyph unicode="&#x2002;" horiz-adv-x="365" />
<glyph unicode="&#x2003;" horiz-adv-x="731" />
<glyph unicode="&#x2004;" horiz-adv-x="243" />
<glyph unicode="&#x2005;" horiz-adv-x="182" />
<glyph unicode="&#x2006;" horiz-adv-x="121" />
<glyph unicode="&#x2007;" horiz-adv-x="121" />
<glyph unicode="&#x2008;" horiz-adv-x="91" />
<glyph unicode="&#x2009;" horiz-adv-x="146" />
<glyph unicode="&#x200a;" horiz-adv-x="40" />
<glyph unicode="&#x2010;" horiz-adv-x="375" d="M0 150h300v75h-300v-75z" />
<glyph unicode="&#x2011;" horiz-adv-x="375" d="M0 150h300v75h-300v-75z" />
<glyph unicode="&#x2013;" horiz-adv-x="450" d="M0 0h375v375h-375v-375zM75 300h75v-150h150v-75h-225v225z" />
<glyph unicode="&#x2014;" horiz-adv-x="450" d="M0 0h375v375h-375v-375zM150 225h150v-150h-150v150z" />
<glyph unicode="&#x2018;" horiz-adv-x="225" d="M0 225h150v150h-75v75h-75v-225z" />
<glyph unicode="&#x2019;" horiz-adv-x="225" d="M0 225h75v-75h75v225h-150v-150z" />
<glyph unicode="&#x201a;" horiz-adv-x="450" d="M0 0h375v375h-375v-375zM75 300h225v-225h-225v225zM150 150h75v75h-75v-75z" />
<glyph unicode="&#x201c;" horiz-adv-x="450" d="M0 0h375v375h-375v-375zM75 300h225v-75h-150v-150h-75v225z" />
<glyph unicode="&#x201d;" horiz-adv-x="450" d="M0 0h375v375h-375v-375zM75 300h225v-225h-75v150h-150v75z" />
<glyph unicode="&#x201e;" horiz-adv-x="450" d="M0 0h375v375h-375v-375zM150 225h75v-75h-75v75z" />
<glyph unicode="&#x2022;" horiz-adv-x="450" d="M0 0h375v375h-375v-375zM75 150h150v150h75v-225h-225v75z" />
<glyph unicode="&#x2026;" horiz-adv-x="450" d="M0 0h375v375h-375v-375z" />
<glyph unicode="&#x202f;" horiz-adv-x="146" />
<glyph unicode="&#x2039;" horiz-adv-x="450" d="M0 0h375v375h-375v-375zM75 300h225v-150h-225v150z" />
<glyph unicode="&#x203a;" horiz-adv-x="450" d="M0 0h375v375h-375v-375zM75 300h225v-75h-150v-150h-75v225zM225 150h75v-75h-75v75z" />
<glyph unicode="&#x205f;" horiz-adv-x="182" />
<glyph unicode="&#x2122;" horiz-adv-x="450" d="M0 0h375v375h-375v-375zM75 300h150v-150h-150v150z" />
</font>
</defs>
</svg>
